<?xml version="1.0" standalone="no"?>
<!DOCTYPE svg PUBLIC "-//W3C//DTD SVG 20010904//EN"
 "http://www.w3.org/TR/2001/REC-SVG-20010904/DTD/svg10.dtd">
<svg version="1.0" xmlns="http://www.w3.org/2000/svg"
 width="719.000000pt" height="719.000000pt" viewBox="0 0 719.000000 719.000000"
 preserveAspectRatio="xMidYMid meet">

<g transform="translate(0.000000,719.000000) scale(0.100000,-0.100000)"
fill="#000000" stroke="none">
<path d="M2890 6874 c-60 -8 -60 -11 1 -73 62 -65 73 -67 117 -27 26 23 67 85
60 91 -7 7 -140 13 -178 9z"/>
<path d="M3812 6853 c-30 -2 -50 -8 -47 -14 4 -5 13 -9 21 -9 9 0 35 -19 58
-42 29 -30 65 -52 117 -72 40 -16 83 -36 93 -45 11 -9 16 -10 12 -3 -5 8 1 12
18 12 21 0 26 -5 26 -23 0 -28 24 -52 63 -61 15 -3 27 -12 27 -18 0 -6 35 -43
77 -82 42 -39 102 -105 134 -148 70 -95 148 -275 191 -442 l30 -121 -11 -170
c-7 -98 -11 -387 -10 -681 1 -460 -1 -514 -16 -550 -10 -21 -19 -33 -22 -26
-3 7 0 19 6 26 14 17 17 212 8 491 -4 121 -8 225 -8 230 -4 38 4 501 8 509 4
6 -1 6 -13 2 -10 -5 -37 -10 -59 -13 -36 -5 -46 0 -95 38 -29 24 -70 61 -89
82 -221 239 -280 287 -426 341 -80 31 -121 33 -134 9 -5 -10 -12 -85 -16 -168
-4 -82 -11 -170 -14 -195 -6 -41 -8 -36 -14 45 -3 50 -9 155 -13 235 l-7 145
28 28 c35 35 82 36 167 3 166 -62 273 -137 453 -315 120 -119 167 -149 186
-120 11 17 6 43 -32 179 -89 319 -201 489 -439 667 -116 86 -205 132 -364 186
l-121 41 -203 4 -204 4 -41 -40 c-114 -110 -172 -119 -282 -44 l-70 47 -117 0
c-134 0 -154 -9 -198 -86 -24 -42 -25 -50 -25 -224 0 -202 10 -247 66 -301 30
-28 33 -29 137 -28 123 0 153 10 225 74 l48 42 72 -4 c91 -4 144 -30 175 -85
20 -37 21 -46 11 -104 -6 -38 -14 -408 -20 -899 -12 -970 -10 -915 -29 -915
-22 0 -27 289 -22 1145 l4 705 -25 26 c-30 29 -84 49 -120 42 -13 -3 -47 -24
-74 -48 -58 -51 -121 -68 -263 -69 -82 -1 -101 2 -143 24 -56 28 -78 55 -102
125 -36 106 -48 427 -20 523 19 62 56 108 98 122 26 8 19 9 -33 4 -150 -13
-235 -90 -294 -267 -14 -42 -16 -167 -18 -1090 l-3 -1043 37 -75 c50 -100 137
-187 237 -237 l75 -37 860 -3 c474 -1 922 1 998 6 127 8 141 10 205 43 78 39
189 142 221 205 54 107 53 84 49 1137 -4 887 -6 977 -22 1027 -58 184 -197
312 -371 340 -55 9 -473 11 -592 3z m-214 -183 c239 -39 556 -243 687 -441 48
-73 107 -186 120 -229 8 -25 7 -25 -13 -6 -12 10 -47 57 -79 105 -112 167
-292 321 -477 406 -139 65 -298 95 -495 95 l-104 0 -75 -47 c-74 -46 -76 -46
-177 -51 l-101 -4 -47 48 c-26 26 -49 45 -52 43 -2 -3 -9 -68 -13 -145 l-9
-139 -2 98 c-1 90 -3 100 -26 122 -21 22 -33 25 -95 25 l-70 0 0 29 c0 16 3
43 6 60 l7 31 75 0 c71 0 76 -2 113 -34 45 -42 86 -54 201 -63 81 -5 91 -4
143 21 30 15 68 44 83 63 l27 35 155 -6 c85 -3 183 -11 218 -16z m1003 -164
c16 -36 19 -68 19 -260 0 -129 -4 -216 -9 -210 -5 5 -11 36 -14 69 -3 33 -13
130 -21 215 -25 246 -20 285 25 186z m-994 -531 c-4 -25 2 -363 13 -752 11
-390 20 -759 20 -820 0 -123 4 -116 -65 -125 -20 -3 -20 5 -27 442 -4 245 -12
486 -18 537 -5 50 -10 228 -10 395 l0 303 -55 2 c-65 3 -90 14 -98 43 -5 19
-1 20 120 20 l126 0 -6 -45z m-933 -277 c4 -157 3 -288 -1 -291 -5 -3 -10 20
-11 51 -5 77 -16 88 -23 22 -4 -42 -6 -29 -7 55 -1 61 5 171 12 247 8 75 14
142 13 150 -1 26 3 61 7 57 2 -2 7 -133 10 -291z m1358 73 c6 -6 11 -36 9 -58
0 -7 -8 -10 -17 -6 -8 3 -13 12 -9 20 4 11 1 13 -11 9 -13 -5 -15 -2 -10 18 4
15 1 27 -7 30 -6 3 -1 3 13 0 14 -4 28 -9 32 -13z m-1185 -43 c-2 -13 -4 -5
-4 17 -1 22 1 32 4 23 2 -10 2 -28 0 -40z m1497 -146 c-2 -53 -6 -125 -9 -159
-3 -38 -1 -63 5 -66 6 -3 5 -4 -2 -3 -8 2 -13 19 -14 44 0 23 -4 45 -7 49 -9
8 -9 176 0 227 5 34 8 37 18 22 9 -11 11 -48 9 -114z m-137 -54 c-3 -8 -6 -5
-6 6 -1 11 2 17 5 13 3 -3 4 -12 1 -19z m-20 -50 c-2 -13 -4 -5 -4 17 -1 22 1
32 4 23 2 -10 2 -28 0 -40z m-153 -14 c34 -17 34 -18 41 -97 4 -44 11 -93 15
-109 5 -15 7 -28 4 -28 -9 0 -27 57 -31 100 -2 25 -6 56 -8 70 -2 14 -4 29 -4
33 -1 5 -5 5 -11 2 -14 -9 -50 13 -50 30 0 19 2 19 44 -1z m183 -81 c-2 -16
-4 -3 -4 27 0 30 2 43 4 28 2 -16 2 -40 0 -55z m-808 -41 c-1 -57 -1 -57 -10
-17 -11 56 -11 87 1 80 6 -3 9 -32 9 -63z m-541 3 l3 -37 -25 28 c-23 26 -23
30 -9 41 22 17 28 10 31 -32z m1371 -37 c1 -5 -3 -8 -7 -8 -4 0 -8 12 -9 28
-1 23 -1 24 7 7 5 -11 9 -23 9 -27z m-1602 0 c-3 -8 -6 -5 -6 6 -1 11 2 17 5
13 3 -3 4 -12 1 -19z m1797 -26 c-4 -18 -13 -32 -21 -32 -8 0 -11 -4 -8 -10 3
-5 2 -10 -4 -10 -21 0 -19 18 6 53 30 43 36 42 27 -1z m-1907 -54 c-2 -13 -4
-5 -4 17 -1 22 1 32 4 23 2 -10 2 -28 0 -40z m1598 -34 c9 -15 12 -23 6 -20
-11 7 -35 46 -28 46 3 0 12 -12 22 -26z m85 -145 c28 -72 30 -88 30 -204 0
-69 -3 -125 -7 -125 -5 0 -6 46 -5 102 4 116 -13 197 -60 287 -24 45 -25 52
-9 37 11 -10 34 -54 51 -97z m-790 -154 c11 -13 10 -14 -4 -9 -9 3 -16 10 -16
15 0 13 6 11 20 -6z m497 -42 c14 -35 16 -96 4 -128 -6 -15 -9 -8 -15 30 -3
28 -13 68 -21 90 -8 22 -14 46 -15 54 0 22 31 -9 47 -46z m-120 -158 c3 -88 2
-196 -3 -240 l-8 -80 -7 100 c-4 55 -7 174 -7 265 -1 214 17 182 25 -45z m442
8 c0 -5 -4 -17 -9 -28 -8 -17 -8 -16 -7 8 1 15 5 27 9 27 4 0 8 -3 7 -7z m151
-262 c0 -59 3 -81 10 -71 7 11 10 -2 10 -42 0 -32 1 -61 3 -65 1 -5 -9 -10
-22 -11 -17 -3 -21 0 -15 9 12 20 4 210 -10 244 -17 39 -9 67 10 40 9 -12 14
-48 14 -104z m-1841 -131 c1 -39 -2 -51 -9 -40 -5 8 -9 51 -9 95 1 69 2 75 10
40 4 -22 8 -65 8 -95z m1725 75 c3 -8 1 -15 -3 -15 -5 0 -11 7 -15 15 -3 8 -1
15 3 15 5 0 11 -7 15 -15z m-874 -49 c0 -3 -4 -8 -10 -11 -5 -3 -10 -1 -10 4
0 6 5 11 10 11 6 0 10 -2 10 -4z"/>
<path d="M4592 6475 c0 -16 2 -22 5 -12 2 9 2 23 0 30 -3 6 -5 -1 -5 -18z"/>
<path d="M1260 5353 c-88 -7 -90 -8 -90 -62 0 -27 6 -53 13 -58 17 -15 95 -23
145 -16 37 5 46 11 59 38 28 58 -5 109 -65 103 -9 -1 -37 -3 -62 -5z"/>
<path d="M1620 5353 c-54 -6 -86 -22 -99 -49 -10 -22 -8 -29 18 -55 28 -27 34
-29 111 -29 123 0 180 34 150 90 -23 42 -73 55 -180 43z"/>
<path d="M5536 5334 c-19 -18 -21 -85 -4 -102 17 -17 133 -16 147 2 19 22 25
84 11 101 -18 21 -133 21 -154 -1z"/>
<path d="M5116 5319 c-34 -26 -34 -63 -1 -85 20 -13 45 -16 131 -12 97 3 108
6 125 27 24 30 24 46 -1 71 -17 17 -33 20 -124 20 -89 0 -107 -3 -130 -21z"/>
<path d="M1065 3893 l-100 -4 -1 -72 c-1 -40 1 -244 3 -454 l5 -383 349 0 349
0 0 105 0 105 -229 0 -229 0 -8 188 c-5 103 -9 262 -9 355 0 144 -2 167 -15
165 -8 -1 -60 -4 -115 -5z"/>
<path d="M4755 3890 c-71 -13 -188 -75 -234 -125 -131 -142 -158 -365 -66
-545 50 -97 179 -204 278 -231 70 -19 187 -12 260 14 148 54 221 117 287 249
47 94 65 190 50 268 -22 119 -108 242 -211 302 -97 57 -258 87 -364 68z m189
-225 c46 -22 99 -73 122 -118 24 -45 30 -163 12 -207 -36 -86 -129 -150 -220
-150 -72 0 -164 52 -202 114 -38 61 -48 163 -22 229 51 130 190 189 310 132z"/>
<path d="M104 3811 c3 -41 6 -244 6 -453 l0 -378 110 0 110 0 0 120 0 120 58
0 c229 2 370 69 441 212 43 85 43 161 0 246 -46 93 -147 176 -239 198 -19 4
-138 8 -264 8 l-228 1 6 -74z m453 -168 c21 -9 41 -30 51 -50 14 -30 15 -38 2
-75 -25 -68 -53 -82 -181 -86 l-109 -4 0 63 c0 35 3 88 6 117 l7 52 94 0 c68
0 105 -5 130 -17z"/>
<path d="M1590 3880 c0 -5 13 -29 29 -52 40 -60 207 -316 276 -422 l57 -90 -7
-168 -8 -169 114 3 114 3 5 170 6 170 34 58 c182 302 249 409 282 450 l39 47
-128 0 -128 0 -60 -101 c-33 -56 -62 -107 -64 -113 -2 -6 -19 -39 -38 -74
l-35 -62 -114 172 c-63 95 -114 176 -114 180 0 4 -58 8 -130 8 -77 0 -130 -4
-130 -10z"/>
<path d="M2588 3873 c-5 -26 7 -881 12 -885 3 -2 50 -2 105 0 l100 4 0 239 c0
131 1 239 1 239 1 0 17 -24 35 -52 19 -29 63 -87 100 -128 78 -90 151 -185
198 -259 l35 -53 59 6 c33 3 72 6 86 6 l26 0 -6 237 c-4 131 -7 331 -8 446
l-1 207 -99 0 -99 0 5 -59 c7 -78 -7 -392 -17 -386 -5 3 -51 58 -104 123 -53
64 -125 151 -161 192 -35 41 -72 90 -82 108 l-18 32 -82 0 c-68 0 -82 -3 -85
-17z"/>
<path d="M3538 3773 c-2 -65 -2 -269 0 -453 l5 -336 96 4 c53 2 98 6 101 9 3
3 5 110 5 238 0 258 -3 251 62 161 21 -28 74 -96 118 -151 44 -55 105 -137
135 -182 l55 -82 95 6 c52 3 96 7 97 8 2 0 0 201 -4 446 l-6 444 -101 -3 -101
-3 2 -247 c2 -197 0 -243 -10 -228 -26 40 -172 219 -244 298 -41 46 -91 107
-111 136 l-35 52 -77 0 -77 0 -5 -117z"/>
<path d="M5303 3873 c3 -10 26 -65 51 -123 24 -58 77 -184 116 -280 40 -96 86
-206 103 -245 17 -38 45 -108 62 -154 l32 -83 124 1 c68 1 125 4 127 5 9 10
209 517 252 641 28 79 59 168 70 195 11 28 20 52 20 53 0 3 -245 -5 -248 -8
-7 -7 -90 -234 -170 -463 -21 -62 -41 -115 -44 -118 -10 -9 -175 408 -213 540
l-16 56 -136 0 c-124 0 -135 -1 -130 -17z"/>
<path d="M6566 3881 l-78 -6 -54 -150 c-136 -375 -247 -678 -269 -729 -7 -16
-5 -18 9 -13 10 4 64 7 120 7 l102 0 29 81 c16 44 32 82 35 84 3 2 77 5 165 6
l160 3 29 -91 29 -90 109 1 c85 1 108 4 108 15 0 31 -135 411 -228 641 l-99
245 -44 1 c-24 0 -79 -2 -123 -5z m114 -423 c16 -56 27 -104 24 -107 -3 -3
-46 -8 -96 -10 -85 -3 -90 -2 -84 15 4 11 25 70 47 132 21 63 42 118 45 124 9
14 26 -29 64 -154z"/>
<path d="M6662 2785 c-16 -14 -37 -41 -47 -61 l-17 -36 -20 33 c-11 19 -29 44
-41 57 -54 58 -166 -5 -167 -95 0 -52 36 -98 90 -114 47 -14 77 1 113 56 23
36 37 44 37 22 0 -26 66 -78 107 -84 37 -5 43 -2 82 38 25 26 41 52 41 67 0
62 -68 142 -120 142 -16 0 -42 -11 -58 -25z m94 -43 c20 -13 35 -53 28 -75 -9
-30 -34 -57 -53 -57 -26 0 -71 51 -71 81 0 43 60 75 96 51z m-228 -14 c19 -19
14 -76 -8 -98 -37 -37 -75 -20 -100 44 -9 24 -8 32 6 47 20 22 83 26 102 7z"/>
<path d="M6864 2787 c-2 -7 -3 -60 -2 -118 l3 -104 30 -3 c84 -10 155 48 155
125 0 38 -5 50 -34 79 -31 31 -40 34 -90 34 -38 0 -58 -4 -62 -13z m104 -53
c33 -23 28 -84 -10 -101 -14 -7 -34 -10 -43 -7 -32 13 -9 123 25 124 3 0 16
-7 28 -16z"/>
<path d="M1994 2776 c-35 -16 -64 -51 -64 -78 0 -21 49 -54 103 -69 39 -10 47
-28 22 -49 -10 -9 -26 -9 -62 -2 -58 13 -74 2 -38 -26 41 -33 91 -39 123 -15
35 26 57 65 49 87 -4 9 -37 31 -74 48 -62 28 -66 31 -48 44 12 9 31 12 57 8
33 -6 38 -4 38 13 0 41 -56 61 -106 39z"/>
<path d="M4130 2766 c0 -28 74 -214 93 -233 11 -11 21 6 55 99 23 62 42 119
42 126 0 6 -10 12 -23 12 -20 0 -26 -10 -46 -70 -12 -38 -24 -70 -27 -70 -2 0
-20 33 -38 74 -37 80 -56 102 -56 62z"/>
<path d="M5946 2774 c-3 -9 -6 -29 -6 -45 0 -28 -2 -29 -45 -29 l-45 0 0 40
c0 32 -4 40 -19 40 -15 0 -20 -10 -25 -60 -4 -33 -4 -87 0 -120 5 -49 10 -60
25 -60 15 0 19 10 21 53 l3 52 40 0 c39 0 40 -1 43 -40 3 -39 16 -65 33 -65
10 0 12 192 3 228 -7 26 -19 29 -28 6z"/>
<path d="M6095 2748 c19 -127 49 -198 81 -198 7 0 20 25 29 55 10 30 19 55 21
55 2 0 9 -20 15 -44 13 -53 45 -88 59 -66 5 8 16 52 25 100 9 47 19 98 22 113
5 26 3 28 -18 25 -21 -3 -25 -11 -35 -68 -10 -60 -12 -63 -22 -39 -6 15 -16
45 -22 68 -19 72 -46 47 -65 -64 l-7 -40 -18 51 c-25 72 -38 94 -56 94 -13 0
-15 -8 -9 -42z"/>
<path d="M184 2745 c-45 -48 -58 -98 -37 -142 36 -76 112 -105 167 -62 49 39
23 74 -33 44 -30 -15 -32 -15 -56 11 -31 33 -33 83 -5 109 17 16 25 17 59 7
55 -17 61 -15 61 16 0 34 -31 52 -87 52 -28 0 -43 -8 -69 -35z"/>
<path d="M643 2673 c-64 -135 -66 -147 -32 -151 21 -2 28 2 33 22 5 21 13 26
41 28 19 0 41 1 47 2 7 1 19 -11 26 -26 15 -33 62 -40 62 -10 0 32 -95 237
-111 240 -11 2 -30 -27 -66 -105z m77 -7 c0 -8 3 -21 6 -30 5 -12 0 -16 -20
-16 -28 0 -32 10 -16 41 12 22 30 25 30 5z"/>
<path d="M875 2773 c-18 -3 -20 -13 -23 -124 l-3 -121 23 4 c18 2 24 10 26 39
3 40 17 49 80 49 29 0 33 3 30 23 -3 19 -10 22 -55 25 -48 3 -53 5 -53 27 0
22 4 24 58 27 54 3 57 4 60 31 l3 27 -63 -1 c-35 -1 -72 -4 -83 -6z"/>
<path d="M1037 2773 c-4 -3 -7 -17 -7 -30 0 -20 5 -23 39 -23 l39 0 8 -99 c9
-98 9 -98 33 -89 23 8 24 10 17 93 l-6 85 24 0 c35 0 59 26 46 51 -9 17 -22
19 -99 19 -48 0 -91 -3 -94 -7z"/>
<path d="M1650 2754 c-71 -60 -78 -121 -22 -185 32 -35 45 -43 74 -43 47 0 84
26 98 69 17 53 8 67 -42 63 -47 -3 -66 -31 -28 -41 11 -3 20 -10 20 -15 0 -32
-86 -13 -99 22 -10 27 6 74 29 86 10 6 37 10 59 10 46 0 51 10 21 40 -28 28
-72 25 -110 -6z"/>
<path d="M2157 2683 c5 -131 11 -163 28 -163 13 0 21 36 17 71 -1 4 19 10 45
14 50 7 93 41 93 74 0 65 -49 101 -138 101 l-49 0 4 -97z m117 14 c14 -22 -5
-37 -46 -37 -25 0 -28 4 -28 31 0 28 2 30 31 27 18 -2 37 -11 43 -21z"/>
<path d="M2414 2763 c-3 -10 -16 -43 -29 -73 -66 -161 -69 -214 -7 -145 25 29
37 35 71 35 33 0 41 -3 41 -19 0 -22 25 -45 40 -36 5 3 10 13 10 21 0 16 -78
203 -93 222 -13 17 -27 15 -33 -5z m46 -125 c0 -5 -11 -8 -25 -8 -28 0 -29 3
-14 31 10 20 11 20 24 2 8 -10 15 -21 15 -25z"/>
<path d="M2598 2751 c-27 -24 -32 -36 -36 -89 -4 -59 -3 -63 30 -96 46 -46 82
-55 116 -29 15 11 27 29 27 39 0 17 -6 19 -51 16 -46 -3 -54 -1 -73 24 -25 32
-27 66 -5 85 8 7 41 13 72 13 55 1 59 4 54 34 -3 13 -49 32 -77 32 -14 0 -39
-13 -57 -29z"/>
<path d="M2767 2749 c5 -19 8 -76 8 -127 l0 -92 76 0 c74 0 99 9 99 37 0 9
-19 13 -71 13 -68 0 -70 1 -63 23 3 12 7 23 8 24 0 0 21 5 45 10 56 11 67 33
16 33 -42 0 -75 15 -75 34 0 9 18 15 56 18 48 4 97 28 83 42 -2 2 -46 7 -97
11 l-92 8 7 -34z"/>
<path d="M3007 2769 c-9 -5 -24 -24 -33 -41 -16 -30 -16 -31 23 -65 21 -18 51
-36 66 -40 33 -7 31 -22 -6 -43 -22 -12 -30 -13 -47 -2 -25 15 -30 15 -30 -2
0 -22 33 -55 63 -62 24 -5 34 0 67 35 61 64 51 92 -45 128 -69 26 -68 49 3 45
41 -3 52 0 52 12 0 39 -69 60 -113 35z"/>
<path d="M3620 2748 c0 -18 5 -51 10 -73 8 -38 8 -39 -8 -20 -9 11 -32 31 -50
44 -19 13 -44 34 -57 47 -42 42 -46 33 -43 -93 3 -114 4 -118 26 -121 20 -3
22 1 22 45 0 79 13 84 55 19 23 -34 45 -56 56 -56 25 0 39 55 39 151 0 61 -3
78 -16 83 -28 11 -34 6 -34 -26z"/>
<path d="M3864 2703 l6 -77 -20 22 c-12 12 -32 29 -45 38 -13 8 -31 31 -40 50
-13 28 -21 34 -47 34 l-31 0 7 -52 c4 -29 9 -83 13 -120 5 -56 9 -68 23 -68
19 0 30 27 30 73 0 38 12 34 58 -18 22 -25 44 -45 50 -45 14 0 22 50 22 135 0
78 -6 105 -23 105 -6 0 -8 -26 -3 -77z"/>
<path d="M3980 2754 c-50 -35 -60 -52 -60 -104 0 -38 5 -51 28 -72 64 -60 108
-63 152 -10 29 34 31 42 27 96 -3 51 -8 63 -35 87 -39 35 -66 36 -112 3z m95
-54 c33 -64 7 -125 -51 -118 -56 6 -69 77 -24 126 29 31 56 28 75 -8z"/>
<path d="M4366 2758 c-9 -12 -16 -31 -16 -41 0 -10 -14 -59 -31 -109 -17 -49
-28 -92 -25 -96 4 -3 20 11 37 31 24 30 37 37 65 37 22 0 40 -7 51 -20 26 -30
33 -25 33 28 -1 35 -10 65 -38 116 -20 39 -42 71 -49 73 -6 2 -18 -6 -27 -19z
m44 -108 c0 -5 -7 -10 -16 -10 -8 0 -12 5 -9 10 3 6 10 10 16 10 5 0 9 -4 9
-10z"/>
<path d="M4500 2746 c0 -31 3 -36 23 -36 21 0 22 -2 18 -86 -3 -85 -3 -86 20
-82 23 3 24 6 24 88 l0 85 38 3 c32 3 37 7 37 28 0 20 -5 24 -27 24 -16 0 -52
3 -80 6 l-53 7 0 -37z"/>
<path d="M4680 2654 c0 -111 2 -125 16 -120 9 3 20 6 25 6 5 0 9 51 9 114 0
115 -3 126 -41 126 -5 0 -9 -56 -9 -126z"/>
<path d="M4898 2717 l-3 -65 -50 59 c-56 65 -80 71 -79 21 3 -209 2 -204 27
-200 21 3 22 7 19 71 -1 37 -1 67 1 67 3 0 25 -31 51 -70 26 -38 51 -70 56
-70 16 0 21 41 18 145 -3 85 -6 100 -20 103 -14 3 -18 -7 -20 -61z"/>
<path d="M5356 2720 c-10 -33 -22 -62 -26 -65 -5 -3 -11 14 -15 37 -9 54 -22
78 -40 78 -19 0 -19 2 6 -115 23 -113 24 -115 49 -115 18 0 35 36 42 90 2 20
7 14 23 -30 32 -86 48 -79 85 39 35 110 36 134 2 139 -19 3 -22 -1 -22 -31 0
-44 -11 -97 -19 -97 -4 0 -13 22 -20 49 -7 27 -20 56 -30 65 -16 15 -18 12
-35 -44z"/>
<path d="M5540 2660 l0 -120 25 0 25 0 0 120 0 120 -25 0 -25 0 0 -120z"/>
<path d="M5616 2764 c-8 -22 0 -31 34 -39 16 -4 29 -10 29 -13 -1 -4 -1 -44 0
-89 1 -77 3 -83 22 -83 19 0 20 5 17 90 l-3 90 27 0 c28 0 55 31 43 50 -3 6
-41 10 -85 10 -62 0 -79 -3 -84 -16z"/>
<path d="M384 2739 c3 -17 6 -71 6 -120 0 -83 1 -89 20 -89 15 0 22 9 27 30
10 53 40 50 66 -5 11 -22 24 -35 36 -35 32 0 34 18 7 51 l-26 31 25 30 c30 36
32 76 4 112 -19 24 -26 26 -96 26 l-75 0 6 -31z m114 -31 c31 -31 -2 -67 -48
-53 -14 4 -20 15 -20 36 0 25 4 29 28 29 15 0 33 -5 40 -12z"/>
<path d="M1269 2753 c-3 -10 -2 -63 1 -118 4 -85 8 -100 23 -103 15 -3 17 8
17 117 0 112 -1 121 -19 121 -10 0 -20 -8 -22 -17z"/>
<path d="M1362 2658 c3 -110 4 -113 26 -116 23 -4 24 -3 17 62 -4 36 -5 66 -2
66 4 0 32 -31 63 -70 34 -42 64 -70 75 -70 18 0 19 9 19 120 l0 120 -26 0 -27
0 7 -62 6 -63 -63 63 c-92 91 -98 87 -95 -50z"/>
<path d="M3394 2755 c3 -9 6 -58 6 -108 0 -92 10 -131 29 -112 5 6 11 60 12
120 l4 110 -29 3 c-23 3 -28 0 -22 -13z"/>
<path d="M5012 2727 c-48 -49 -52 -75 -21 -127 38 -64 90 -86 139 -60 18 10
40 59 40 91 0 24 -35 42 -66 35 -28 -7 -30 -22 -8 -47 17 -19 12 -39 -10 -39
-23 0 -66 48 -66 73 0 13 11 34 24 46 21 19 31 22 65 16 45 -7 49 -1 25 33
-26 38 -72 30 -122 -21z"/>
<path d="M3196 2579 c-2 -8 -9 -29 -15 -48 -25 -79 -1 -110 38 -47 26 42 27
68 1 91 -16 14 -20 15 -24 4z"/>
<path d="M6145 1283 c-132 -47 -476 -165 -765 -263 -289 -98 -579 -197 -645
-219 -66 -23 -372 -125 -680 -227 -308 -102 -632 -211 -720 -241 -88 -30 -265
-91 -394 -134 -128 -43 -235 -80 -237 -82 -8 -8 181 -48 341 -73 227 -35 510
-50 721 -38 160 9 172 11 200 34 16 14 74 40 127 58 94 32 99 33 136 19 l38
-16 33 34 c59 61 244 125 460 160 52 8 120 22 150 30 72 20 180 35 206 29 34
-9 275 120 469 249 214 143 481 369 630 533 118 130 195 220 195 228 0 12 -27
4 -265 -81z"/>
<path d="M1303 873 c31 -2 83 -2 115 0 31 2 5 3 -58 3 -63 0 -89 -1 -57 -3z"/>
<path d="M1508 863 c7 -3 16 -2 19 1 4 3 -2 6 -13 5 -11 0 -14 -3 -6 -6z"/>
<path d="M1548 853 c7 -3 16 -2 19 1 4 3 -2 6 -13 5 -11 0 -14 -3 -6 -6z"/>
<path d="M1280 846 c0 -1 27 -24 59 -50 56 -43 63 -46 121 -46 102 0 167 -47
195 -143 9 -30 23 -50 51 -69 21 -15 43 -27 47 -28 11 0 -1 82 -19 141 -17 54
-71 120 -125 154 -21 14 -66 29 -101 35 -59 9 -228 14 -228 6z m425 -182 c9
-19 15 -39 13 -44 -2 -5 -14 15 -28 45 -14 30 -20 49 -14 44 7 -5 20 -26 29
-45z"/>
<path d="M1587 839 c7 -7 15 -10 18 -7 3 3 -2 9 -12 12 -14 6 -15 5 -6 -5z"/>
<path d="M4905 302 c-29 -4 -28 -5 14 -18 40 -12 49 -11 85 6 l41 19 -55 -2
c-30 -1 -68 -3 -85 -5z"/>
<path d="M4586 204 c-112 -30 -197 -69 -228 -101 l-23 -25 40 8 c49 9 350 96
425 123 l55 20 -90 0 c-64 0 -115 -7 -179 -25z"/>
<path d="M4135 63 c-27 -8 -54 -19 -60 -25 -7 -8 -5 -9 6 -5 8 3 46 8 82 12
37 4 67 11 67 16 0 5 -4 9 -9 9 -5 0 -15 2 -23 4 -7 3 -35 -2 -63 -11z"/>
</g>
</svg>
